<?xml version="1.0" standalone="no"?>
<!DOCTYPE svg PUBLIC "-//W3C//DTD SVG 20010904//EN"
 "http://www.w3.org/TR/2001/REC-SVG-20010904/DTD/svg10.dtd">
<svg version="1.0" xmlns="http://www.w3.org/2000/svg"
 width="56" height="57" viewBox="0 0 270 271"
 preserveAspectRatio="xMidYMid meet">

<g transform="translate(0.000000,360.000000) scale(0.100000,-0.100000)"
fill="#FF0000" stroke="none">
<path d="M1638 2910 c-118 -20 -214 -59 -319 -131 -324 -220 -429 -830 -217
-1269 55 -114 177 -238 288 -292 252 -123 609 -124 857 -2 92 46 208 155 262
247 39 67 85 196 103 294 20 105 17 408 -6 511 -94 439 -358 654 -796 651 -69
-1 -146 -5 -172 -9z m320 -314 c145 -39 248 -156 297 -341 40 -146 25 -467
-24 -544 -17 -26 -51 -1 -77 57 -21 47 -74 117 -74 97 0 -3 -10 1 -22 9 -36
22 -102 34 -272 51 -119 12 -170 22 -211 39 -29 14 -57 21 -61 18 -4 -4 -4 -1
0 6 4 6 3 12 -3 12 -5 0 -23 11 -39 25 -16 13 -33 21 -37 17 -5 -4 -5 -2 -2 4
8 14 -16 37 -29 26 -5 -4 -6 -3 -2 2 5 5 -3 24 -17 42 -14 18 -25 43 -25 56 0
37 38 165 64 216 51 101 158 186 262 211 60 14 213 12 272 -3z m122 -806 c0
-23 -35 -28 -43 -6 -7 18 1 26 25 26 11 0 18 -7 18 -20z m114 -154 c-4 -26
-71 -100 -116 -130 -83 -55 -156 -76 -265 -76 -51 0 -93 3 -93 6 0 15 57 83
99 117 55 45 150 76 260 87 85 8 117 6 115 -4z"/>
</g>
</svg>
